<svg xmlns="http://www.w3.org/2000/svg" width="102" height="100" fill="none"><path fill="#361281" stroke="#D5FF2F" stroke-miterlimit="10" stroke-width="2" d="M50.998 4.43 20.637 15.415 4.482 43.228l5.609 31.625 24.752 20.641h32.31l24.752-20.641 5.612-31.625-16.155-27.813L50.998 4.43Z"/><path fill="#361281" stroke="#D5FF2F" stroke-miterlimit="10" stroke-width="2" d="m50.998 27.884-15.192 5.5L27.72 47.3l2.808 15.826 12.388 10.33h16.167l12.385-10.33L74.276 47.3l-8.083-13.917-15.195-5.499Z"/><path stroke="#D5FF2F" stroke-miterlimit="10" stroke-width="2" d="M50.998 4.506v23.78M20.481 15.536l30.517 12.75M81.514 15.536l-30.516 12.75M35.74 33.456l15.258-28.95M66.256 33.456 50.998 4.506M81.514 15.536l-15.258 17.92M74.233 47.244l7.281-31.708M35.74 33.456 20.48 15.533M27.766 47.244l-7.285-31.708M4.532 43.106l23.234 4.138M30.538 63.096 10.08 74.816M27.767 47.244 10.08 74.817M4.532 43.106l26.006 19.99M43.022 73.436l-8.32 22.058M67.298 95.494 43.02 73.436M30.538 63.096 34.7 95.494M10.08 74.817l32.942-1.38M58.974 73.436l32.944 1.723M71.458 63.096l-4.16 32.398M58.974 73.436l8.324 22.058M34.701 95.494l24.273-22.058M74.233 47.244l23.234-4.138M91.918 74.817 74.232 47.244M71.458 63.096l20.46 11.72M97.467 43.106 70.763 63.441M66.256 33.456l31.211 9.65"/><path fill="#361281" d="M17.015 15.878c0-.682.204-1.349.585-1.916a3.465 3.465 0 0 1 1.558-1.27 3.49 3.49 0 0 1 3.78.75 3.428 3.428 0 0 1 .75 3.758 3.453 3.453 0 0 1-1.279 1.546 3.484 3.484 0 0 1-4.38-.43 3.441 3.441 0 0 1-1.014-2.438Z"/><path fill="#361281" stroke="#D5FF2F" stroke-miterlimit="10" stroke-width="2" d="M21.807 19.063a3.44 3.44 0 0 0 1.878-4.505 3.477 3.477 0 0 0-4.533-1.866 3.44 3.44 0 0 0-1.877 4.505 3.477 3.477 0 0 0 4.532 1.866Z"/><path fill="#361281" d="M1.063 43.796c0-.682.203-1.35.585-1.917a3.464 3.464 0 0 1 1.558-1.27 3.489 3.489 0 0 1 3.782.752 3.429 3.429 0 0 1 .746 3.76 3.453 3.453 0 0 1-1.282 1.547 3.484 3.484 0 0 1-1.93.576 3.48 3.48 0 0 1-2.453-1.01 3.437 3.437 0 0 1-1.016-2.438"/><path fill="#361281" stroke="#D5FF2F" stroke-miterlimit="10" stroke-width="2" d="M5.86 46.981a3.44 3.44 0 0 0 1.877-4.505 3.477 3.477 0 0 0-4.532-1.866 3.44 3.44 0 0 0-1.877 4.505 3.477 3.477 0 0 0 4.532 1.866Z"/><path fill="#361281" d="M6.959 75.159c0-.682.203-1.349.585-1.916a3.465 3.465 0 0 1 1.557-1.27 3.488 3.488 0 0 1 3.781.749 3.429 3.429 0 0 1 .75 3.759 3.453 3.453 0 0 1-1.28 1.546 3.484 3.484 0 0 1-4.38-.43 3.443 3.443 0 0 1-1.013-2.438Z"/><path fill="#361281" stroke="#D5FF2F" stroke-miterlimit="10" stroke-width="2" d="M11.753 78.346a3.44 3.44 0 0 0 1.877-4.505 3.477 3.477 0 0 0-4.532-1.866A3.44 3.44 0 0 0 7.22 76.48a3.477 3.477 0 0 0 4.533 1.866Z"/><path fill="#361281" d="M31.232 95.51c0-.682.204-1.348.585-1.915a3.464 3.464 0 0 1 1.557-1.27 3.489 3.489 0 0 1 3.78.747 3.43 3.43 0 0 1 .752 3.757 3.452 3.452 0 0 1-1.278 1.548 3.484 3.484 0 0 1-4.38-.429 3.437 3.437 0 0 1-1.016-2.438Z"/><path fill="#361281" stroke="#D5FF2F" stroke-miterlimit="10" stroke-width="2" d="M36.029 98.68a3.44 3.44 0 0 0 1.877-4.504 3.476 3.476 0 0 0-4.532-1.866 3.44 3.44 0 0 0-1.878 4.505 3.476 3.476 0 0 0 4.533 1.865Z"/><path fill="#361281" d="M63.829 95.51c0-.682.203-1.348.584-1.915a3.464 3.464 0 0 1 1.557-1.27 3.489 3.489 0 0 1 3.78.747 3.43 3.43 0 0 1 .752 3.757 3.452 3.452 0 0 1-1.277 1.548 3.484 3.484 0 0 1-4.38-.429 3.437 3.437 0 0 1-1.016-2.438Z"/><path fill="#361281" stroke="#D5FF2F" stroke-miterlimit="10" stroke-width="2" d="M68.624 98.68a3.44 3.44 0 0 0 1.878-4.505 3.477 3.477 0 0 0-4.533-1.865 3.44 3.44 0 0 0-1.877 4.504 3.476 3.476 0 0 0 4.532 1.866Z"/><path fill="#361281" d="M88.45 75.159c0-.682.203-1.349.584-1.916a3.464 3.464 0 0 1 1.557-1.27 3.489 3.489 0 0 1 3.78.748 3.428 3.428 0 0 1 .752 3.757 3.453 3.453 0 0 1-1.277 1.548 3.484 3.484 0 0 1-4.38-.43 3.437 3.437 0 0 1-1.017-2.437Z"/><path fill="#361281" stroke="#D5FF2F" stroke-miterlimit="10" stroke-width="2" d="M93.244 78.344a3.44 3.44 0 0 0 1.877-4.504 3.477 3.477 0 0 0-4.532-1.867 3.44 3.44 0 0 0-1.878 4.505 3.476 3.476 0 0 0 4.533 1.866Z"/><path fill="#361281" d="M93.998 43.796c0-.682.204-1.349.585-1.916a3.465 3.465 0 0 1 1.557-1.27 3.489 3.489 0 0 1 3.78.748 3.423 3.423 0 0 1 .752 3.757 3.449 3.449 0 0 1-1.277 1.548 3.485 3.485 0 0 1-4.382-.428 3.445 3.445 0 0 1-1.015-2.439Z"/><path fill="#361281" stroke="#D5FF2F" stroke-miterlimit="10" stroke-width="2" d="M98.795 46.983a3.44 3.44 0 0 0 1.877-4.505 3.476 3.476 0 0 0-4.532-1.866 3.44 3.44 0 0 0-1.877 4.505 3.477 3.477 0 0 0 4.532 1.866Z"/><path fill="#361281" d="M77.702 15.878c0-.682.203-1.349.584-1.916a3.465 3.465 0 0 1 1.558-1.27 3.49 3.49 0 0 1 3.78.75 3.429 3.429 0 0 1 .75 3.758 3.453 3.453 0 0 1-1.278 1.546 3.485 3.485 0 0 1-4.38-.43 3.443 3.443 0 0 1-1.014-2.438Z"/><path fill="#361281" stroke="#D5FF2F" stroke-miterlimit="10" stroke-width="2" d="M82.494 19.064a3.44 3.44 0 0 0 1.877-4.505 3.477 3.477 0 0 0-4.532-1.866 3.44 3.44 0 0 0-1.878 4.505 3.477 3.477 0 0 0 4.533 1.866Z"/><path fill="#361281" d="M47.532 4.506c0-.682.204-1.35.585-1.916a3.464 3.464 0 0 1 1.557-1.27 3.489 3.489 0 0 1 3.781.749 3.429 3.429 0 0 1 .75 3.759 3.452 3.452 0 0 1-1.279 1.546 3.484 3.484 0 0 1-4.379-.431 3.437 3.437 0 0 1-1.015-2.437Z"/><path fill="#361281" stroke="#D5FF2F" stroke-miterlimit="10" stroke-width="2" d="M52.326 7.69a3.44 3.44 0 0 0 1.877-4.505 3.477 3.477 0 0 0-4.532-1.866 3.44 3.44 0 0 0-1.878 4.505 3.477 3.477 0 0 0 4.533 1.866Z"/><path fill="#361281" d="M32.274 33.8c0-.681.203-1.348.585-1.915a3.464 3.464 0 0 1 1.557-1.27 3.488 3.488 0 0 1 3.78.749 3.428 3.428 0 0 1 .75 3.759 3.453 3.453 0 0 1-1.278 1.546 3.484 3.484 0 0 1-5.131-1.549 3.427 3.427 0 0 1-.263-1.32Z"/><path fill="#361281" stroke="#D5FF2F" stroke-miterlimit="10" stroke-width="2" d="M37.068 36.986a3.44 3.44 0 0 0 1.877-4.505 3.476 3.476 0 0 0-4.532-1.866 3.44 3.44 0 0 0-1.878 4.505 3.477 3.477 0 0 0 4.533 1.866Z"/><path fill="#361281" d="M47.532 28.286a3.434 3.434 0 0 1 .591-1.913 3.464 3.464 0 0 1 1.56-1.264 3.488 3.488 0 0 1 3.777.758 3.428 3.428 0 0 1 .744 3.757 3.453 3.453 0 0 1-1.28 1.544 3.484 3.484 0 0 1-4.378-.431 3.443 3.443 0 0 1-1.014-2.438"/><path fill="#361281" stroke="#D5FF2F" stroke-miterlimit="10" stroke-width="2" d="M52.325 31.471a3.44 3.44 0 0 0 1.877-4.505A3.477 3.477 0 0 0 49.67 25.1a3.44 3.44 0 0 0-1.878 4.505 3.477 3.477 0 0 0 4.533 1.866Z"/><path fill="#361281" d="M63.134 33.8c0-.681.204-1.348.585-1.915a3.464 3.464 0 0 1 1.557-1.27 3.488 3.488 0 0 1 3.78.748 3.428 3.428 0 0 1 .752 3.757 3.452 3.452 0 0 1-1.277 1.548 3.485 3.485 0 0 1-4.38-.43 3.438 3.438 0 0 1-1.017-2.437Z"/><path fill="#361281" stroke="#D5FF2F" stroke-miterlimit="10" stroke-width="2" d="M67.93 36.988a3.44 3.44 0 0 0 1.877-4.505 3.477 3.477 0 0 0-4.532-1.866 3.44 3.44 0 0 0-1.877 4.505 3.476 3.476 0 0 0 4.532 1.866Z"/><path fill="#361281" d="M70.763 47.93c0-.681.204-1.348.585-1.915a3.464 3.464 0 0 1 1.557-1.27 3.488 3.488 0 0 1 3.78.748 3.428 3.428 0 0 1 .752 3.757 3.451 3.451 0 0 1-1.277 1.547 3.484 3.484 0 0 1-4.38-.428 3.437 3.437 0 0 1-1.017-2.438Z"/><path fill="#361281" stroke="#D5FF2F" stroke-miterlimit="10" stroke-width="2" d="M75.561 51.117a3.44 3.44 0 0 0 1.877-4.505 3.476 3.476 0 0 0-4.532-1.866 3.44 3.44 0 0 0-1.877 4.505 3.477 3.477 0 0 0 4.532 1.866Z"/><path fill="#361281" d="M67.298 63.441c0-.682.203-1.349.585-1.916a3.464 3.464 0 0 1 1.557-1.27 3.49 3.49 0 0 1 3.78.75 3.429 3.429 0 0 1 .75 3.759 3.452 3.452 0 0 1-1.278 1.546 3.483 3.483 0 0 1-5.131-1.55 3.426 3.426 0 0 1-.263-1.319Z"/><path fill="#361281" stroke="#D5FF2F" stroke-miterlimit="10" stroke-width="2" d="M72.091 66.628a3.44 3.44 0 0 0 1.878-4.505 3.476 3.476 0 0 0-4.533-1.865 3.44 3.44 0 0 0-1.877 4.504 3.477 3.477 0 0 0 4.532 1.866Z"/><path fill="#361281" d="M56.2 73.436c0-.682.203-1.348.584-1.915a3.465 3.465 0 0 1 1.557-1.27 3.488 3.488 0 0 1 3.78.747 3.428 3.428 0 0 1 .752 3.757 3.452 3.452 0 0 1-1.277 1.548 3.483 3.483 0 0 1-4.38-.429 3.437 3.437 0 0 1-1.016-2.438Z"/><path fill="#361281" stroke="#D5FF2F" stroke-miterlimit="10" stroke-width="2" d="M60.997 76.621a3.44 3.44 0 0 0 1.877-4.504 3.477 3.477 0 0 0-4.532-1.866 3.44 3.44 0 0 0-1.878 4.504 3.477 3.477 0 0 0 4.533 1.866Z"/><path fill="#361281" d="M39.208 73.436c0-.682.204-1.348.585-1.915a3.465 3.465 0 0 1 1.557-1.27 3.488 3.488 0 0 1 3.78.747 3.428 3.428 0 0 1 .752 3.757 3.452 3.452 0 0 1-1.277 1.548 3.484 3.484 0 0 1-5.133-1.547 3.426 3.426 0 0 1-.264-1.32Z"/><path fill="#361281" stroke="#D5FF2F" stroke-miterlimit="10" stroke-width="2" d="M44.006 76.622a3.44 3.44 0 0 0 1.877-4.505 3.477 3.477 0 0 0-4.532-1.866 3.44 3.44 0 0 0-1.877 4.505 3.477 3.477 0 0 0 4.532 1.866Z"/><path fill="#361281" d="M27.767 63.441c0-.682.203-1.349.584-1.916a3.465 3.465 0 0 1 1.558-1.27 3.49 3.49 0 0 1 3.78.75 3.429 3.429 0 0 1 .75 3.759 3.453 3.453 0 0 1-1.279 1.546 3.484 3.484 0 0 1-5.13-1.55 3.424 3.424 0 0 1-.264-1.319Z"/><path fill="#361281" stroke="#D5FF2F" stroke-miterlimit="10" stroke-width="2" d="M32.56 66.627a3.44 3.44 0 0 0 1.877-4.505 3.477 3.477 0 0 0-4.532-1.866 3.44 3.44 0 0 0-1.878 4.505 3.477 3.477 0 0 0 4.533 1.866Z"/><path fill="#361281" d="M24.297 47.93c0-.681.204-1.348.585-1.915a3.465 3.465 0 0 1 1.557-1.27 3.49 3.49 0 0 1 3.781.749 3.429 3.429 0 0 1 .75 3.759 3.453 3.453 0 0 1-1.279 1.546 3.483 3.483 0 0 1-5.13-1.55 3.424 3.424 0 0 1-.264-1.318Z"/><path fill="#361281" stroke="#D5FF2F" stroke-miterlimit="10" stroke-width="2" d="M29.09 51.119a3.44 3.44 0 0 0 1.878-4.505 3.477 3.477 0 0 0-4.533-1.866 3.44 3.44 0 0 0-1.877 4.505 3.476 3.476 0 0 0 4.532 1.866Z"/></svg>