<svg xmlns="http://www.w3.org/2000/svg" width="200" height="50" fill="none"><path fill="#D5FF2F" d="M178.604.00000169H21.3795C19.6561-.00092391 17.9628.378415 16.4701 1.09984c-1.4928.72143-2.7324 1.7595-3.5941 3.00975L1.31452 20.8904C.453363 22.1399 0 23.5572 0 25c0 1.4428.453363 2.8601 1.31452 4.1096L12.876 45.8904c.8617 1.2503 2.1013 2.2883 3.5941 3.0098 1.4927.7214 3.186 1.1007 4.9094 1.0998H178.604c1.722-.0003 3.414-.3802 4.905-1.1016 1.491-.7213 2.729-1.7588 3.59-3.008l11.586-16.7808C199.547 27.8601 200 26.4428 200 25c0-1.4428-.453-2.8601-1.315-4.1096L187.099 4.10959c-.861-1.24924-2.099-2.28666-3.59-3.00803-1.491-.721372-3.183-1.10128123-4.905-1.10155831Z"/></svg>