<?xml version="1.0" encoding="UTF-8"?>
<svg id="Layer_2" data-name="Layer 2" xmlns="http://www.w3.org/2000/svg" viewBox="0 0 1345.03 505.37">
  <defs>
    <style>
      .cls-1 {
        fill: #d5ff2f;
      }

      .cls-1, .cls-2, .cls-3, .cls-4, .cls-5, .cls-6, .cls-7, .cls-8, .cls-9 {
        stroke-miterlimit: 10;
      }

      .cls-1, .cls-5, .cls-6, .cls-7 {
        stroke: #d5ff2f;
      }

      .cls-1, .cls-7 {
        stroke-width: 4px;
      }

      .cls-2 {
        stroke: #fff;
      }

      .cls-2, .cls-3, .cls-4, .cls-5, .cls-8, .cls-9 {
        stroke-width: 3px;
      }

      .cls-2, .cls-3, .cls-5, .cls-6, .cls-7, .cls-8 {
        fill: none;
      }

      .cls-3, .cls-9 {
        stroke: #000;
      }

      .cls-4 {
        fill: #ff2b79;
      }

      .cls-4, .cls-8 {
        stroke: #ff2b79;
      }

      .cls-6 {
        stroke-width: 5px;
      }

      .cls-9 {
        fill: #fff;
      }
    </style>
  </defs>
  <g id="Layer_1-2" data-name="Layer 1">
    <path class="cls-4" d="m606.52,95.96l137.5,1"/>
    <path class="cls-2" d="m314.52,121.96h63.81c1.21,0,2.19.98,2.2,2.19l.96,196.97c.02,3.78,3.09,6.84,6.87,6.83l72.66-.05"/>
    <path class="cls-3" d="m316.02,146.96l24.11.15c3.05,0,5.52,2.46,5.54,5.51l.96,281.22c0,1.25,1.04,2.25,2.28,2.22l419.11-.09"/>
    <path class="cls-9" d="m1257.18,109.76l87.84.75"/>
    <path class="cls-9" d="m938.4,95.57l130.62.75"/>
    <path class="cls-3" d="m743.02,119.96h-56.56c-1.23,0-3.05,1.79-3.06,3.01l.02,199.69c0,3.21-2.65,5.8-5.91,5.8h-68.49"/>
    <path class="cls-8" d="m1062.02,121.46h-68.85c-1.21,0-2.99,2.71-3,4.54v301.72c0,4.84-2.59,8.77-5.79,8.77h-67.21"/>
    <path class="cls-7" d="m78.45,67.03L140.51,4.97c1.93-1.93,4.55-3,7.28-2.97l86.66.91c2.62.03,5.12,1.08,6.97,2.93l61.23,61.23c1.85,1.85,2.9,4.35,2.93,6.97l.91,86.72c.03,2.69-1.03,5.28-2.93,7.18l-62.1,62.1c-1.88,1.88-4.42,2.93-7.07,2.93h-88.63c-2.7,0-5.29-1.09-7.18-3.04l-60.23-62.05c-1.81-1.87-2.82-4.36-2.82-6.96v-86.8c0-2.65,1.05-5.2,2.93-7.07Z"/>
    <path class="cls-9" d="m.02,115.38l67.84,1"/>
    <path class="cls-9" d="m314.57,94.76l145.46,1"/>
    <circle class="cls-1" cx="74.52" cy="115.96" r="6.5"/>
    <path class="cls-1" d="m315.02,146.46c.86.78.69,1.42,0,2,0,0-13,7.59-13,4s-1.59-12,2-12,11,6,11,6Z"/>
    <path class="cls-1" d="m313.86,120.82c.86.78.69,1.42,0,2,0,0-13,7.59-13,4s-1.59-12,2-12,11,6,11,6Z"/>
    <path class="cls-1" d="m313.86,94.82c.86.78.69,1.42,0,2,0,0-13,7.59-13,4s-1.59-12,2-12,11,6,11,6Z"/>
    <path class="cls-7" d="m132.66,91.66l31.94-31.94c.99-.99,2.34-1.54,3.75-1.53l44.6.47c1.35.01,2.63.56,3.59,1.51l31.51,31.51c.95.95,1.49,2.24,1.51,3.59l.47,44.63c.01,1.38-.53,2.71-1.51,3.69l-31.96,31.96c-.97.97-2.27,1.51-3.64,1.51h-45.61c-1.39,0-2.72-.56-3.69-1.56l-31-31.94c-.93-.96-1.45-2.25-1.45-3.58v-44.67c0-1.36.54-2.67,1.51-3.64Z"/>
    <path class="cls-7" d="m469.87,68.93l35.97-35.7c1.12-1.11,2.64-1.72,4.22-1.71l50.22.52c1.52.02,2.97.62,4.04,1.68l35.49,35.22c1.07,1.06,1.68,2.5,1.7,4.01l.53,49.88c.02,1.55-.6,3.03-1.7,4.13l-35.99,35.72c-1.09,1.08-2.56,1.68-4.1,1.68h-51.36c-1.57,0-3.07-.63-4.16-1.75l-34.91-35.7c-1.05-1.07-1.64-2.51-1.64-4.01v-49.93c0-1.53.61-2.99,1.7-4.07Z"/>
    <path class="cls-7" d="m501.27,83.3l18.44-18.17c.57-.56,1.35-.88,2.16-.87l25.75.27c.78,0,1.52.32,2.07.86l18.19,17.93c.55.54.86,1.27.87,2.04l.27,25.39c0,.79-.31,1.54-.87,2.1l-18.45,18.18c-.56.55-1.31.86-2.1.86h-26.33c-.8,0-1.57-.32-2.13-.89l-17.89-18.17c-.54-.55-.84-1.28-.84-2.04v-25.41c0-.78.31-1.52.87-2.07Z"/>
    <path class="cls-1" d="m607.66,95.43c.86.78.69,1.42,0,2,0,0-13,7.59-13,4s-1.59-12,2-12,11,6,11,6Z"/>
    <circle class="cls-1" cx="467.52" cy="94.96" r="6.5"/>
    <path class="cls-7" d="m470.35,301.63l35.97-35.7c1.12-1.11,2.64-1.72,4.22-1.71l50.22.52c1.52.02,2.97.62,4.04,1.68l35.49,35.22c1.07,1.06,1.68,2.5,1.7,4.01l.53,49.88c.02,1.55-.6,3.03-1.7,4.13l-35.99,35.72c-1.09,1.08-2.56,1.68-4.1,1.68h-51.36c-1.57,0-3.07-.63-4.16-1.75l-34.91-35.7c-1.05-1.07-1.64-2.51-1.64-4.01v-49.93c0-1.53.61-2.99,1.7-4.07Z"/>
    <path class="cls-7" d="m501.76,316l18.44-18.17c.57-.56,1.35-.88,2.16-.87l25.75.27c.78,0,1.52.32,2.07.86l18.19,17.93c.55.54.86,1.27.87,2.04l.27,25.39c0,.79-.31,1.54-.87,2.1l-18.45,18.18c-.56.55-1.31.86-2.1.86h-26.33c-.8,0-1.57-.32-2.13-.89l-17.89-18.17c-.54-.55-.84-1.28-.84-2.04v-25.41c0-.78.31-1.52.87-2.07Z"/>
    <path class="cls-1" d="m608.15,328.14c.86.78.69,1.42,0,2,0,0-13,7.59-13,4s-1.59-12,2-12,11,6,11,6Z"/>
    <circle class="cls-1" cx="468.01" cy="327.66" r="6.5"/>
    <path class="cls-7" d="m777.67,407.92l35.97-35.7c1.12-1.11,2.64-1.72,4.22-1.71l50.22.52c1.52.02,2.97.62,4.04,1.68l35.49,35.22c1.07,1.06,1.68,2.5,1.7,4.01l.53,49.88c.02,1.55-.6,3.03-1.7,4.13l-35.99,35.72c-1.09,1.08-2.56,1.68-4.1,1.68h-51.36c-1.57,0-3.07-.63-4.16-1.75l-34.91-35.7c-1.05-1.07-1.64-2.51-1.64-4.01v-49.93c0-1.53.61-2.99,1.7-4.07Z"/>
    <path class="cls-7" d="m809.08,422.29l18.44-18.17c.57-.56,1.35-.88,2.16-.87l25.75.27c.78,0,1.52.32,2.07.86l18.19,17.93c.55.54.86,1.27.87,2.04l.27,25.39c0,.79-.31,1.54-.87,2.1l-18.45,18.18c-.56.55-1.31.86-2.1.86h-26.33c-.8,0-1.57-.32-2.13-.89l-17.89-18.17c-.54-.55-.84-1.28-.84-2.04v-25.41c0-.78.31-1.52.87-2.07Z"/>
    <path class="cls-1" d="m915.47,434.43c.86.78.69,1.42,0,2,0,0-13,7.59-13,4s-1.59-12,2-12,11,6,11,6Z"/>
    <circle class="cls-1" cx="775.33" cy="433.95" r="6.5"/>
    <path class="cls-7" d="m1070.59,69.27l49.06-48.69c1.52-1.51,3.6-2.35,5.75-2.33l68.5.72c2.07.02,4.04.85,5.51,2.3l48.4,48.04c1.46,1.45,2.29,3.41,2.31,5.47l.72,68.04c.02,2.11-.81,4.14-2.31,5.63l-49.09,48.72c-1.48,1.47-3.49,2.3-5.59,2.3h-70.06c-2.14,0-4.18-.86-5.67-2.38l-47.61-48.69c-1.43-1.46-2.23-3.42-2.23-5.46v-68.1c0-2.08.83-4.08,2.32-5.55Z"/>
    <path class="cls-7" d="m1113.43,88.88l25.15-24.78c.78-.77,1.84-1.2,2.95-1.19l35.12.36c1.06.01,2.07.43,2.82,1.17l24.81,24.45c.75.74,1.18,1.74,1.19,2.78l.37,34.63c.01,1.07-.42,2.11-1.19,2.87l-25.17,24.8c-.76.75-1.79,1.17-2.87,1.17h-35.92c-1.1,0-2.14-.44-2.91-1.21l-24.41-24.78c-.73-.75-1.14-1.74-1.14-2.78v-34.66c0-1.06.43-2.07,1.19-2.82Z"/>
    <path class="cls-1" d="m1257.6,108.85c.86.78.69,1.42,0,2,0,0-13,7.59-13,4s-1.59-12,2-12,11,6,11,6Z"/>
    <circle class="cls-1" cx="1069.52" cy="96.96" r="6.5"/>
    <circle class="cls-1" cx="750.52" cy="95.96" r="6.5"/>
    <circle class="cls-1" cx="750.52" cy="120.96" r="6.5"/>
    <path class="cls-7" d="m753.41,69.42l48.34-48.63c1.5-1.51,3.54-2.35,5.67-2.33l67.5.71c2.04.02,3.99.85,5.43,2.29l47.69,47.99c1.44,1.45,2.26,3.41,2.28,5.46l.71,67.96c.02,2.11-.8,4.13-2.28,5.62l-48.37,48.67c-1.46,1.47-3.44,2.3-5.51,2.3h-69.03c-2.11,0-4.12-.86-5.59-2.38l-46.91-48.63c-1.41-1.46-2.2-3.42-2.2-5.46v-68.03c0-2.08.82-4.07,2.28-5.54Z"/>
    <path class="cls-7" d="m793.29,88.11l25.16-24.79c.78-.77,1.84-1.2,2.95-1.19l35.13.36c1.06.01,2.07.43,2.82,1.17l24.82,24.46c.75.74,1.18,1.74,1.19,2.78l.37,34.64c.01,1.07-.42,2.11-1.19,2.87l-25.17,24.81c-.76.75-1.79,1.17-2.87,1.17h-35.93c-1.1,0-2.15-.44-2.91-1.21l-24.42-24.79c-.73-.75-1.14-1.74-1.14-2.78v-34.68c0-1.06.43-2.08,1.19-2.82Z"/>
    <path class="cls-1" d="m937.44,95.5c.86.78.69,1.42,0,2,0,0-13,7.59-13,4s-1.59-12,2-12,11,6,11,6Z"/>
    <circle class="cls-1" cx="1068.52" cy="120.96" r="6.5"/>
    <rect class="cls-6" x="174.77" y="88.96" width="28.75" height="57" rx="13.58" ry="13.58"/>
    <rect class="cls-5" x="527.52" y="83.92" width="15" height="29.06" rx="7.5" ry="7.5"/>
    <rect class="cls-5" x="836.01" y="421.89" width="15" height="29.06" rx="7.5" ry="7.5"/>
    <path class="cls-5" d="m527.52,323.96c-.01-.74.07-2.33,1-4,.35-.63,1.2-2.1,3-3,1.91-.95,4.2-.91,6,0,1.21.61,1.83,1.44,3,3,1.27,1.69,1.98,2.64,2,4,.02,1.67-1.02,2.87-2,4-.54.62-2.32,2.68-5,3-1.04.12-2-.04-2,0,0,.09,4.39-.43,7,2,1.58,1.46,1.91,3.44,2,4,.39,2.5-.65,4.39-1,5-.93,1.63-2.22,2.55-3,3-.78.45-2.76,1.59-5,1-1.34-.35-2.16-1.16-3-2-.82-.81-2.17-2.4-3-5"/>
    <path class="cls-7" d="m1148.93,97.12c-.02-1.13.09-3.53,1.4-6.06.5-.96,1.68-3.19,4.19-4.55,2.66-1.44,5.87-1.38,8.39,0,1.69.93,3.48,2.58,5.11,4.94,1.77,2.55,1.85,3.61,1.88,5.67.03,2.53-1.43,4.35-2.8,6.06-.75.94-3.25,4.06-6.99,4.55-1.46.19-2.79-.06-2.8,0-.01.14,6.13-.64,9.79,3.03,2.2,2.21,2.67,5.22,2.8,6.06.55,3.79-.91,6.65-1.4,7.58-1.31,2.48-3.1,3.86-4.19,4.55-1.09.68-3.85,2.41-6.99,1.52-1.88-.54-3.02-1.76-4.19-3.03-1.14-1.23-3.04-3.64-4.19-7.58"/>
    <path class="cls-7" d="m855.02,85.46h-26.12c-1.59,0-2.88,1.29-2.88,2.88v14.44c0,2.13,2.23,3.52,4.15,2.58.59-.29,1.17-.67,1.85-.89,6-2,7-2,8-2,7,0,7.3,1.43,8,2,5.08,4.18,5.05,10.63,5,12-.13,3.74-1.63,6.37-2,7-1.68,2.84-3.92,4.36-5,5-1.26.75-3.74,1.96-7,2-5.44.07-9.12-3.18-10-4"/>
  </g>
</svg>