<svg xmlns="http://www.w3.org/2000/svg" width="78" height="193" fill="none"><path stroke="#FF6F1F" stroke-miterlimit="10" stroke-width="2" d="M27.8245 4.87131 19.9715 2l-7.8529 2.87131-4.1883 7.27819 1.4554 8.272 6.4028 5.4008h8.3765l6.4081-5.4008 1.4502-8.272-4.1988-7.27819ZM25.4948 17.4924l-3.3454 2.8187h-4.3662l-3.3402-2.8187-.7591-4.3175 2.1831-3.79157 4.0993-1.50401 4.0993 1.50401 2.1831 3.79157-.7539 4.3175ZM71.8012 4.87131 63.9482 2l-7.853 2.87131-4.1882 7.27819 1.4554 8.272 6.4028 5.4008h8.3765l6.4081-5.4008L76 12.1495l-4.1988-7.27819ZM69.4715 17.4924l-3.3453 2.8187h-4.3663l-3.3401-2.8187-.7591-4.3175 2.1831-3.79157 4.0993-1.50401 4.0992 1.50401 2.1832 3.79157-.754 4.3175ZM27.8245 46.4157l-7.853-2.8713-7.8529 2.8713-4.1883 7.2782 1.4554 8.2721 6.4028 5.4007h8.3765l6.4081-5.4007 1.4502-8.2721-4.1988-7.2782Zm-2.3297 12.6211-3.3454 2.8187h-4.3662l-3.3402-2.8187-.7591-4.3174 2.1831-3.7916 4.0993-1.504 4.0993 1.504 2.1831 3.7916-.7539 4.3174ZM71.8012 46.4157l-7.853-2.8713-7.853 2.8713-4.1882 7.2782 1.4554 8.2721 6.4028 5.4007h8.3765l6.4081-5.4007L76 53.6939l-4.1988-7.2782Zm-2.3297 12.6211-3.3453 2.8187h-4.3663l-3.3401-2.8187-.7591-4.3174 2.1831-3.7916 4.0993-1.504 4.0992 1.504 2.1832 3.7916-.754 4.3174ZM27.8245 87.9602l-7.853-2.8713-7.8529 2.8713-4.1883 7.2781 1.4554 8.2717 6.4028 5.401h8.3765l6.4081-5.401 1.4502-8.2717-4.1988-7.2781Zm-2.3297 12.6208-3.3454 2.819h-4.3662l-3.3402-2.819-.7591-4.3172 2.1831-3.7916 4.0993-1.504 4.0993 1.504 2.1831 3.7916-.7539 4.3172ZM71.8012 87.9602l-7.853-2.8713-7.853 2.8713-4.1882 7.2781 1.4554 8.2717 6.4028 5.401h8.3765l6.4081-5.401L76 95.2383l-4.1988-7.2781Zm-2.3297 12.6208-3.3453 2.819h-4.3663l-3.3401-2.819-.7591-4.3172 2.1831-3.7916 4.0993-1.504 4.0992 1.504 2.1832 3.7916-.754 4.3172ZM27.8245 129.505l-7.853-2.872-7.8529 2.872-4.1883 7.278 1.4554 8.272 6.4028 5.401h8.3765l6.4081-5.401 1.4502-8.272-4.1988-7.278Zm-2.3297 12.621-3.3454 2.818h-4.3662l-3.3402-2.818-.7591-4.318 2.1831-3.791 4.0993-1.504 4.0993 1.504 2.1831 3.791-.7539 4.318ZM71.8012 129.505l-7.853-2.872-7.853 2.872-4.1882 7.278 1.4554 8.272 6.4028 5.401h8.3765l6.4081-5.401L76 136.783l-4.1988-7.278Zm-2.3297 12.621-3.3453 2.818h-4.3663l-3.3401-2.818-.7591-4.318 2.1831-3.791 4.0993-1.504 4.0992 1.504 2.1832 3.791-.754 4.318ZM27.8245 171.049l-7.853-2.871-7.8529 2.871-4.1883 7.278 1.4554 8.272L15.7885 192h8.3765l6.4081-5.401 1.4502-8.272-4.1988-7.278Zm-2.3297 12.621-3.3454 2.819h-4.3662l-3.3402-2.819-.7591-4.317 2.1831-3.792 4.0993-1.504 4.0993 1.504 2.1831 3.792-.7539 4.317ZM71.8012 171.049l-7.853-2.871-7.853 2.871-4.1882 7.278 1.4554 8.272L59.7652 192h8.3765l6.4081-5.401L76 178.327l-4.1988-7.278Zm-2.3297 12.621-3.3453 2.819h-4.3663l-3.3401-2.819-.7591-4.317 2.1831-3.792 4.0993-1.504 4.0992 1.504 2.1832 3.792-.754 4.317Z"/></svg>