<?xml version="1.0" standalone="no"?>
<!DOCTYPE svg PUBLIC "-//W3C//DTD SVG 20010904//EN"
 "http://www.w3.org/TR/2001/REC-SVG-20010904/DTD/svg10.dtd">
<svg version="1.0" xmlns="http://www.w3.org/2000/svg"
 width="700.000000pt" height="700.000000pt" viewBox="0 0 700.000000 700.000000"
 preserveAspectRatio="xMidYMid meet">
<metadata>
Created by potrace 1.14, written by Peter Selinger 2001-2017
</metadata>
<g transform="translate(0.000000,700.000000) scale(0.100000,-0.100000)"
fill="#000000" stroke="none">
<path d="M2112 6986 c-81 -26 -150 -88 -185 -165 -25 -58 -30 -152 -9 -214
l15 -49 -737 -737 -738 -738 -49 18 c-123 47 -243 18 -331 -80 -85 -95 -100
-224 -37 -340 32 -61 107 -125 159 -136 l30 -7 0 -1072 0 -1073 -45 -17 c-57
-22 -130 -93 -158 -154 -29 -64 -30 -178 0 -243 44 -97 137 -164 245 -175 63
-6 141 13 187 46 16 11 33 20 38 20 4 0 330 -322 724 -716 l716 -716 -14 -29
c-21 -43 -25 -136 -8 -196 47 -161 233 -252 393 -191 66 25 142 99 166 162
l18 46 1007 0 1007 0 22 -49 c49 -107 145 -173 262 -177 204 -9 356 187 295
381 l-18 57 716 716 717 717 27 -18 c62 -40 98 -51 173 -51 123 0 224 63 271
169 33 72 33 182 0 249 -32 65 -86 118 -150 146 l-51 24 0 1071 0 1072 39 11
c21 7 59 31 85 53 153 135 133 374 -39 478 -76 45 -193 59 -242 28 -7 -5 -13
-6 -13 -3 0 3 -12 -2 -27 -10 l-28 -14 -738 738 -739 739 17 58 c56 190 -76
373 -272 381 -135 5 -246 -70 -293 -198 l-10 -28 -1009 0 -1009 0 -18 45 c-22
59 -91 130 -150 156 -58 26 -156 33 -212 15z"/>
</g>
</svg>
